<svg width="112" height="31" viewBox="0 0 112 31" fill="none" xmlns="http://www.w3.org/2000/svg">
<path d="M4.66 14.74V11.22H6.52C7.88 11.22 8.46 11.9 8.46 12.98C8.46 14.06 7.88 14.74 6.52 14.74H4.66ZM11.94 12.98C11.94 10.4 10.22 8.46 6.78 8.46H1.24V22.5H4.66V17.46H6.78C10.36 17.46 11.94 15.3 11.94 12.98ZM18.6405 13.92C19.7805 13.92 20.7405 14.62 20.7405 15.84H16.4605C16.6605 14.6 17.5205 13.92 18.6405 13.92ZM23.9805 18.8H20.3405C20.0605 19.4 19.5205 19.88 18.5605 19.88C17.4605 19.88 16.5605 19.2 16.4405 17.74H24.1805C24.2205 17.4 24.2405 17.06 24.2405 16.74C24.2405 13.34 21.9405 11.18 18.6805 11.18C15.3605 11.18 13.0405 13.38 13.0405 16.92C13.0405 20.46 15.4005 22.66 18.6805 22.66C21.4605 22.66 23.4405 20.98 23.9805 18.8ZM33.7447 22.5H37.1447V15.98C37.1447 12.98 35.4247 11.22 32.8447 11.22C31.3447 11.22 30.1447 11.88 29.4647 12.82V11.34H26.0447V22.5H29.4647V16.44C29.4647 14.92 30.3047 14.08 31.6047 14.08C32.9047 14.08 33.7447 14.92 33.7447 16.44V22.5ZM47.2213 22.5H50.6213V15.98C50.6213 12.98 48.9013 11.22 46.3213 11.22C44.8213 11.22 43.6213 11.88 42.9413 12.82V11.34H39.5213V22.5H42.9413V16.44C42.9413 14.92 43.7813 14.08 45.0813 14.08C46.3813 14.08 47.2213 14.92 47.2213 16.44V22.5ZM63.9178 16.92C63.9178 13.38 61.3978 11.18 58.1178 11.18C54.8578 11.18 52.3178 13.38 52.3178 16.92C52.3178 20.46 54.7978 22.66 58.0778 22.66C61.3578 22.66 63.9178 20.46 63.9178 16.92ZM55.7978 16.92C55.7978 15.02 56.8778 14.14 58.1178 14.14C59.3178 14.14 60.4378 15.02 60.4378 16.92C60.4378 18.8 59.2978 19.7 58.0778 19.7C56.8378 19.7 55.7978 18.8 55.7978 16.92ZM64.6722 11.34L68.6322 22.5H72.8522L76.8122 11.34H73.1722L70.7522 19.3L68.3322 11.34H64.6722ZM77.5717 16.9C77.5717 20.42 79.7517 22.66 82.4717 22.66C84.1317 22.66 85.3117 21.9 85.9317 20.92V22.5H89.3517V11.34H85.9317V12.92C85.3317 11.94 84.1517 11.18 82.4917 11.18C79.7517 11.18 77.5717 13.38 77.5717 16.9ZM85.9317 16.92C85.9317 18.7 84.7917 19.68 83.4917 19.68C82.2117 19.68 81.0517 18.68 81.0517 16.9C81.0517 15.12 82.2117 14.16 83.4917 14.16C84.7917 14.16 85.9317 15.14 85.9317 16.92ZM92.3659 18.62C92.3659 21.52 93.9859 22.5 96.3059 22.5H98.0459V19.6H96.8259C96.0659 19.6 95.7859 19.32 95.7859 18.66V14.18H98.0259V11.34H95.7859V8.62H92.3659V11.34H91.0059V14.18H92.3659V18.62ZM104.871 13.92C106.011 13.92 106.971 14.62 106.971 15.84H102.691C102.891 14.6 103.751 13.92 104.871 13.92ZM110.211 18.8H106.571C106.291 19.4 105.751 19.88 104.791 19.88C103.691 19.88 102.791 19.2 102.671 17.74H110.411C110.451 17.4 110.471 17.06 110.471 16.74C110.471 13.34 108.171 11.18 104.911 11.18C101.591 11.18 99.2709 13.38 99.2709 16.92C99.2709 20.46 101.631 22.66 104.911 22.66C107.691 22.66 109.671 20.98 110.211 18.8Z" fill="#001F7E"/>
</svg>
